PathFileType	4	(X/Y/Z)	/Users/niels/Desktop/University/Third Semester/Perception and Action/Exam/Gymnastics Motion Tracking/Code for Gym Tracking/Analyzed Data/Webcam_Backflip/id6_5_baseline_Sports2D/id6_5_baseline_Sports2D_px_person00.trc
DataRate	CameraRate	NumFrames	NumMarkers	Units	OrigDataRate	OrigDataStartFrame	OrigNumFrames
29.8125	29.8125	9	22	m	29.8125	0	160
Frame#	Time	Hip			RHip			RKnee			RAnkle			RBigToe			RSmallToe			RHeel			LHip			LKnee			LAnkle			LBigToe			LSmallToe			LHeel			Neck			Head			Nose			RShoulder			RElbow			RWrist			LShoulder			LElbow			LWrist		
		X1	Y1	Z1	X2	Y2	Z2	X3	Y3	Z3	X4	Y4	Z4	X5	Y5	Z5	X6	Y6	Z6	X7	Y7	Z7	X8	Y8	Z8	X9	Y9	Z9	X10	Y10	Z10	X11	Y11	Z11	X12	Y12	Z12	X13	Y13	Z13	X14	Y14	Z14	X15	Y15	Z15	X16	Y16	Z16	X17	Y17	Z17	X18	Y18	Z18	X19	Y19	Z19	X20	Y20	Z20	X21	Y21	Z21	X22	Y22	Z22
0	0.0	0.9570608656611018	-0.5839380867907749	0.0	0.9597446428943287	-0.5799063567155943	0.0	0.9624289756906407	-0.678011231915337	0.0	0.9463041033262314	-0.7774696599571997	0.0	0.9785684481436191	-0.796293400852463	0.0	0.9678098728279266	-0.7976314088657525	0.0	0.9368979223607408	-0.7922544443037961	0.0	0.9584162587940523	-0.5772159070287871	0.0	0.9610961035025941	-0.6780149386198464	0.0	0.9463103950337022	-0.7734399122821248	0.0	0.9759017488398429	-0.7935942283786286	0.0	0.971878989826338	-0.7922532131702851	0.0	0.9355646122605756	-0.786881373416318	0.0	0.9704975440951197	-0.4522147866307978	0.0	0.9919904614748782	-0.3823203408440334	0.0	1.0040854646329025	-0.4186152531368374	0.0	0.9691445809197684	-0.4656448049118049	0.0	0.9946452800785702	-0.530162977455255	0.0	1.038975068777341	-0.5825639940595139	0.0	0.9570700738745582	-0.46430986670889374	0.0	0.9679227650059032	-0.5261302634608948	0.0	0.9909683771166299	-0.5744922685572454	0.0
1	0.03354297693920335	0.9569978022470623	-0.5833794391351242	0.0	0.9587687110392085	-0.5800782568878005	0.0	0.9623907530583857	-0.6790205678390546	0.0	0.9462080500426233	-0.7780256972040951	0.0	0.9770945523634833	-0.7964258303687259	0.0	0.968438305516586	-0.7985716547400974	0.0	0.9368623041676637	-0.7926980289085915	0.0	0.9579354539761162	-0.5779373622021712	0.0	0.9610904568637034	-0.6787316677548739	0.0	0.9466408386991025	-0.7738292167970121	0.0	0.9757200504967649	-0.7941899920024381	0.0	0.9711629757455853	-0.7918666939158188	0.0	0.9361180373048624	-0.7875984269714615	0.0	0.9705609771327117	-0.4527230873807215	0.0	0.992470954825894	-0.3831282276131388	0.0	1.0041362355407666	-0.4201964717745553	0.0	0.9692848812873607	-0.46567707933260866	0.0	1.0014965116122452	-0.5245526126039787	0.0	1.0520533366472489	-0.5705172622107441	0.0	0.9580429214779738	-0.46410946948985476	0.0	0.9777062894902981	-0.5226320138533063	0.0	0.9997474938391488	-0.5651778190019652	0.0
2	0.0670859538784067	0.9569555058329277	-0.5828480866351898	0.0	0.9579882005696423	-0.5802663519276655	0.0	0.9624004219248201	-0.6799836682731477	0.0	0.946231152858693	-0.7785031072739188	0.0	0.9756644295947976	-0.7965367349941714	0.0	0.9687332495957849	-0.7993855835211309	0.0	0.9369198701432236	-0.7930318287936913	0.0	0.9575012570078134	-0.5785318254504568	0.0	0.9611594086720038	-0.6793888625577698	0.0	0.9470361855554033	-0.7741466225741402	0.0	0.9757284631975703	-0.7946707936358404	0.0	0.9708710369363585	-0.7915275198046635	0.0	0.9367252736160998	-0.7881488746122399	0.0	0.9706436051398751	-0.45316926882307196	0.0	0.9930321921026374	-0.38385156014181065	0.0	1.0041673155171802	-0.421494734693794	0.0	0.9693988746030496	-0.4656369060129031	0.0	1.0080468092111299	-0.5184292873436009	0.0	1.064221338549534	-0.5571242630844468	0.0	0.959064418522146	-0.4638272455799553	0.0	0.9872876559349552	-0.5182369752794427	0.0	1.0118291292985058	-0.5541592348860486	0.0
3	0.10062893081761004	0.9569300976848734	-0.5823937781367394	0.0	0.9575082418723992	-0.5804740207620517	0.0	0.9625383402136387	-0.6808365617608876	0.0	0.9463995546825423	-0.7788470666030625	0.0	0.9744852231973397	-0.7965984651497401	0.0	0.9687119536447287	-0.799967150814988	0.0	0.9370674902855612	-0.7931913234718144	0.0	0.9571249201121087	-0.5789258914765445	0.0	0.9613333660666861	-0.6799441508031574	0.0	0.9474646030976414	-0.7743588992940392	0.0	0.9759877230123498	-0.7949308374918878	0.0	0.9711385584066061	-0.7912238289241448	0.0	0.9373148300733334	-0.7884243416234098	0.0	0.9707642170143963	-0.45348623497899426	0.0	0.9936430522435554	-0.3843805961417856	0.0	1.0041713920502346	-0.42231434441871896	0.0	0.969472931914154	-0.4654474241760146	0.0	1.0140544002901628	-0.5113049537256315	0.0	1.0747092834570378	-0.5413977583081065	0.0	0.9601141943319256	-0.4634040202043042	0.0	0.9962811398547478	-0.5122287188797897	0.0	1.0281544971286953	-0.540253784003333	0.0
4	0.1341719077568134	0.9569278353146805	-0.5820373417719498	0.0	0.9573257232246892	-0.5806629987354444	0.0	0.9628713281729708	-0.6814876770895683	0.0	0.9466475645164873	-0.7790279424496687	0.0	0.9737370845262066	-0.7966009438553606	0.0	0.9685719468274545	-0.8002743818183928	0.0	0.9372151778491032	-0.793167268275875	0.0	0.9568019193496561	-0.5790783134178298	0.0	0.9616137521080237	-0.6803575170740781	0.0	0.9478330802908963	-0.7744543099797732	0.0	0.9764028605501003	-0.7949302293152568	0.0	0.971798355793635	-0.7909201240603135	0.0	0.9377576872891998	-0.7883983056939916	0.0	0.9709023573853593	-0.4536271752104784	0.0	0.994219378489196	-0.38462314837441947	0.0	1.0041719500517885	-0.42259339999020723	0.0	0.9695033476525959	-0.46505914095266493	0.0	1.0193802148053592	-0.502860704449764	0.0	1.08301452884455	-0.523045382486348	0.0	0.9610604561044633	-0.4628155100170202	0.0	1.0040295339155156	-0.5042518435863368	0.0	1.0457288654713666	-0.5231458004500165	0.0
5	0.16771488469601675	0.9570184625486315	-0.5817255775211414	0.0	0.9574044662177182	-0.580744443336672	0.0	0.9634131295194363	-0.6818574062291924	0.0	0.9468864439103106	-0.7790269769922709	0.0	0.9733871853995966	-0.7965427844851477	0.0	0.9684023911068	-0.8003355045768894	0.0	0.9372892124601351	-0.7929792947244545	0.0	0.9565689793984442	-0.5789531410954977	0.0	0.9620068293160959	-0.6805899998766662	0.0	0.9480720641770531	-0.7744198175606716	0.0	0.9767665159098576	-0.7947422315539224	0.0	0.972516991252524	-0.7906291873648229	0.0	0.9379996327503284	-0.7880949967069906	0.0	0.9709703232844372	-0.4535851041847678	0.0	0.9947392957422228	-0.38457270897783763	0.0	1.0042301416723907	-0.42234774578175727	0.0	0.9694898540850296	-0.46448622607089113	0.0	1.0239418688755548	-0.49294832706371106	0.0	1.088901805080628	-0.5023779194633889	0.0	0.9616986162887987	-0.4620586811271741	0.0	1.0096511390733052	-0.49431233975426575	0.0	1.058749298652816	-0.5032566467579116	0.0
6	0.20125786163522008	0.9573149667758385	-0.5813918499029638	0.0	0.9577406183388039	-0.5806351334169678	0.0	0.9641391403811499	-0.6819420526408511	0.0	0.9470573893091179	-0.7788314339956527	0.0	0.9732960590423488	-0.7964123689213474	0.0	0.9682019604762131	-0.8002179311947858	0.0	0.9372864144852299	-0.7926596836906256	0.0	0.9565136802134936	-0.5785628382645853	0.0	0.962518554710644	-0.6806469197023026	0.0	0.9481654639096632	-0.7742656246849488	0.0	0.9768526787599241	-0.7945132868555038	0.0	0.9729599819793091	-0.7904160477324377	0.0	0.9380764106440472	-0.78755827903377	0.0	0.9708564793062087	-0.453388937535096	0.0	0.9952180633736359	-0.3843297343419352	0.0	1.0044107259305506	-0.4216404634628887	0.0	0.9694160312784048	-0.46380532229565546	0.0	1.027641091018924	-0.481604404531212	0.0	1.0923368238800786	-0.4800474801923505	0.0	0.9618693000942452	-0.46114314770612813	0.0	1.0124392159540927	-0.4827100645350154	0.0	1.0626344962476777	-0.48146081546829683	0.0
7	0.23480083857442344	0.9579036971174221	-0.5810220847287585	0.0	0.9583793337489332	-0.5803295623549971	0.0	0.9650277822696696	-0.68182391096679	0.0	0.9471384399156167	-0.7784469223539727	0.0	0.97335336302331	-0.7961972421583906	0.0	0.9679997507995733	-0.7999802897089235	0.0	0.9372450945836283	-0.7922663937233037	0.0	0.956704512223788	-0.5780088675078171	0.0	0.9631302168214859	-0.6805964736561118	0.0	0.9481093805647502	-0.7740410241206388	0.0	0.976478802085973	-0.7943775606795384	0.0	0.9728597985970036	-0.7903374335428766	0.0	0.9380069599630297	-0.7868540070845411	0.0	0.9704993513900099	-0.4530848685031987	0.0	0.9956194690958194	-0.3840263684439384	0.0	1.0047122704342542	-0.42059306264363855	0.0	0.9692550058165375	-0.4630792394931273	0.0	1.0303164975780308	-0.4690712824687918	0.0	1.093324866613481	-0.45683672734632563	0.0	0.9615536648756673	-0.46008271048596555	0.0	1.0122737975756386	-0.46993760575367016	0.0	1.057072557828387	-0.458822282211759	0.0
8	0.2683438155136268	0.9588020167032725	-0.5806329337694727	0.0	0.9593841224761173	-0.5799115277700482	0.0	0.9660727694406828	-0.6816141947182496	0.0	0.9471304140707777	-0.7779128802022375	0.0	0.9734967378610827	-0.7958953444064145	0.0	0.967864569525614	-0.7996317390767529	0.0	0.9372236506951928	-0.7918756553789168	0.0	0.9571379552126006	-0.5774437804107021	0.0	0.9638032539812755	-0.6805183623318514	0.0	0.9478808714012057	-0.773807615431125	0.0	0.9755749532925145	-0.7944128685092537	0.0	0.9720581378597876	-0.7904004391674517	0.0	0.9377450020561906	-0.7860837234646424	0.0	0.9699349539521862	-0.4527027589212848	0.0	0.995863613220056	-0.3836971850587599	0.0	1.0050236723329253	-0.4193212565366552	0.0	0.9690209986024284	-0.46226252528347705	0.0	1.031738018090363	-0.4557788614741287	0.0	1.0917945946701904	-0.4336175268468548	0.0	0.9609084860814714	-0.4588754511356163	0.0	1.00975398179705	-0.45662699963748316	0.0	1.0458114873541549	-0.4364347207169929	0.0
